<svg xmlns="http://www.w3.org/2000/svg" xmlns:xlink="http://www.w3.org/1999/xlink" width="121.352" height="68.606" viewBox="0 0 121.352 68.606">
  <defs>
    <clipPath id="clip-path">
      <rect id="Rectangle_45" data-name="Rectangle 45" width="121.352" height="68.606" fill="none"/>
    </clipPath>
  </defs>
  <g id="Group_17" data-name="Group 17" clip-path="url(#clip-path)">
    <path id="Path_2057" data-name="Path 2057" d="M202.783,0c8.244,1.508,15.577,4.7,21.454,10.906a34.545,34.545,0,0,1,6.336,37.243C225.066,60.877,212.517,68.78,198.09,68.6A33.973,33.973,0,0,1,167.5,47.8c.469-.362,1.339-.715,1.347-1.086.094-4.471.061-8.945.061-13.711H154.2l10.2-.868,1.38-6.11c2.625-.649,1.948-2.26,1.148-3.905,4.871-11.942,13.7-19.087,26.392-21.572a17.825,17.825,0,0,0,1.8-.549Zm21.408,22.5H202.7V47.416h21.93l.437-3.408H212.6v-7.7h11.31c-.136-1.465-.236-2.539-.345-3.715H212.513V25.856h12.181l-.5-3.355M185.8,25.822l-13.34,21.586h24.367c.213-1.1.383-1.969.671-3.445h-12.13l13.383-21.51H174.441l-.223,3.37Z" transform="translate(-112.071)" fill="#ffa900"/>
    <path id="Path_2058" data-name="Path 2058" d="M0,84.294c1.5-2.568,3.752-3.356,6.675-3.275,5.6.155,11.213.045,17.123.045l.665,3.744H9.822c-1.207,3.538-.689,4.38,2.557,4.47,2.65.073,5.307-.045,7.951.1,2.973.16,4.714,1.681,4.7,4.819-.01,2.109-.049,4.22.013,6.328.088,2.973-1.023,5.114-3.992,6.072H.888c-.077-1.524-.126-2.5-.2-3.959H15.956c-.161-1.709-.273-2.885-.424-4.484-3.478,0-6.636,0-9.794,0-2.455,0-4.666-.476-5.737-3.056Z" transform="translate(0 -58.881)" fill="#fff"/>
    <path id="Path_2059" data-name="Path 2059" d="M120.548,91.858h14.709c0,4.767.033,9.241-.061,13.712-.008.371-.877.724-1.347,1.086l-6.926-.916a72.778,72.778,0,0,1-7.5.767c-10.837.1-11.527-.632-11.508-11.392a76.055,76.055,0,0,1,.213-8.535c.463-4.028,2.24-5.474,6.358-5.523,6.262-.075,12.524-.059,18.786-.082.8,1.645,1.476,3.256-1.149,3.9-4.106-.118-8.221-.408-12.311-.211-.837.041-2.166,1.861-2.265,2.95-.3,3.342-.119,6.728-.118,10.1,0,5.528,2.753,7.046,7.9,4.262V95.323l-5.268-.495.482-2.971" transform="translate(-78.423 -58.853)" fill="#fff"/>
  </g>
</svg>
